{
	"patcher" : 	{
		"fileversion" : 1,
		"appversion" : 		{
			"major" : 8,
			"minor" : 3,
			"revision" : 1,
			"architecture" : "x64",
			"modernui" : 1
		}
,
		"classnamespace" : "box",
		"rect" : [ 260.0, 87.0, 1175.0, 817.0 ],
		"bglocked" : 0,
		"openinpresentation" : 0,
		"default_fontsize" : 12.0,
		"default_fontface" : 0,
		"default_fontname" : "Arial",
		"gridonopen" : 1,
		"gridsize" : [ 15.0, 15.0 ],
		"gridsnaponopen" : 1,
		"objectsnaponopen" : 1,
		"statusbarvisible" : 2,
		"toolbarvisible" : 1,
		"lefttoolbarpinned" : 0,
		"toptoolbarpinned" : 0,
		"righttoolbarpinned" : 0,
		"bottomtoolbarpinned" : 0,
		"toolbars_unpinned_last_save" : 0,
		"tallnewobj" : 0,
		"boxanimatetime" : 200,
		"enablehscroll" : 1,
		"enablevscroll" : 1,
		"devicewidth" : 0.0,
		"description" : "",
		"digest" : "",
		"tags" : "",
		"style" : "",
		"subpatcher_template" : "",
		"assistshowspatchername" : 0,
		"boxes" : [ 			{
				"box" : 				{
					"id" : "obj-58",
					"maxclass" : "newobj",
					"numinlets" : 2,
					"numoutlets" : 1,
					"outlettype" : [ "int" ],
					"patching_rect" : [ 798.0, 212.0, 49.0, 22.0 ],
					"text" : "- 10000"
				}

			}
, 			{
				"box" : 				{
					"id" : "obj-57",
					"maxclass" : "newobj",
					"numinlets" : 2,
					"numoutlets" : 1,
					"outlettype" : [ "int" ],
					"patching_rect" : [ 715.0, 103.0, 29.5, 22.0 ],
					"text" : "+ 2"
				}

			}
, 			{
				"box" : 				{
					"id" : "obj-53",
					"maxclass" : "comment",
					"numinlets" : 1,
					"numoutlets" : 0,
					"patching_rect" : [ 837.5, 61.0, 122.0, 20.0 ],
					"text" : "read data file into coll"
				}

			}
, 			{
				"box" : 				{
					"id" : "obj-54",
					"maxclass" : "newobj",
					"numinlets" : 1,
					"numoutlets" : 0,
					"patching_rect" : [ 864.0, 217.0, 32.0, 22.0 ],
					"text" : "print"
				}

			}
, 			{
				"box" : 				{
					"id" : "obj-55",
					"maxclass" : "message",
					"numinlets" : 2,
					"numoutlets" : 1,
					"outlettype" : [ "" ],
					"patching_rect" : [ 840.0, 81.0, 33.0, 22.0 ],
					"text" : "read"
				}

			}
, 			{
				"box" : 				{
					"id" : "obj-56",
					"maxclass" : "newobj",
					"numinlets" : 1,
					"numoutlets" : 4,
					"outlettype" : [ "", "", "", "" ],
					"patching_rect" : [ 840.0, 150.0, 83.0, 22.0 ],
					"saved_object_attributes" : 					{
						"embed" : 0,
						"precision" : 6
					}
,
					"text" : "coll pressdata"
				}

			}
, 			{
				"box" : 				{
					"id" : "obj-1",
					"maxclass" : "comment",
					"numinlets" : 1,
					"numoutlets" : 0,
					"patching_rect" : [ 333.546073999999976, 538.04950000000008, 53.0, 20.0 ],
					"text" : "Volume"
				}

			}
, 			{
				"box" : 				{
					"id" : "obj-2",
					"interpinlet" : 1,
					"maxclass" : "gain~",
					"multichannelvariant" : 0,
					"numinlets" : 2,
					"numoutlets" : 2,
					"orientation" : 2,
					"outlettype" : [ "signal", "" ],
					"parameter_enable" : 0,
					"patching_rect" : [ 300.883960999999999, 520.004944000000023, 28.0, 77.0 ]
				}

			}
, 			{
				"box" : 				{
					"id" : "obj-4",
					"maxclass" : "newobj",
					"numinlets" : 1,
					"numoutlets" : 1,
					"outlettype" : [ "signal" ],
					"patching_rect" : [ 397.744033999999999, 414.143570000000011, 34.0, 22.0 ],
					"text" : "sig~"
				}

			}
, 			{
				"box" : 				{
					"id" : "obj-5",
					"maxclass" : "newobj",
					"numinlets" : 1,
					"numoutlets" : 1,
					"outlettype" : [ "signal" ],
					"patching_rect" : [ 299.757678999999996, 414.143570000000011, 34.0, 22.0 ],
					"text" : "sig~"
				}

			}
, 			{
				"box" : 				{
					"id" : "obj-13",
					"maxclass" : "preset",
					"numinlets" : 1,
					"numoutlets" : 5,
					"outlettype" : [ "preset", "int", "preset", "int", "" ],
					"patching_rect" : [ 654.535828000000038, 582.559418000000051, 89.0, 17.0 ],
					"preset_data" : [ 						{
							"number" : 1,
							"data" : [ 5, "obj-24", "flonum", "float", 5000.0, 5, "obj-21", "flonum", "float", 130.809998000000007, 5, "obj-20", "flonum", "float", 2.8, 4, "obj-14", "function", "clear", 6, "obj-14", "function", "add", 0.0, 6.0, 6, "obj-14", "function", "add", 4999.999512000000323, 0.0, 4, "obj-13", "function", "clear", 6, "obj-13", "function", "add", 0.0, 0.90625, 6, "obj-13", "function", "add", 1000.0, 0.125, 6, "obj-13", "function", "add", 3000.0, 0.015062, 6, "obj-13", "function", "add", 4999.999512000000323, 0.0 ]
						}
, 						{
							"number" : 2,
							"data" : [ 5, "obj-24", "flonum", "float", 5000.0, 5, "obj-21", "flonum", "float", 130.809998000000007, 5, "obj-20", "flonum", "float", 1.005, 4, "obj-14", "function", "clear", 6, "obj-14", "function", "add", 0.0, 7.5, 6, "obj-14", "function", "add", 2706.421875, 1.875, 6, "obj-14", "function", "add", 4999.999512000000323, 0.0, 4, "obj-13", "function", "clear", 6, "obj-13", "function", "add", 0.0, 0.90625, 6, "obj-13", "function", "add", 1000.0, 0.125, 6, "obj-13", "function", "add", 3000.0, 0.015062, 6, "obj-13", "function", "add", 4999.999512000000323, 0.0 ]
						}
, 						{
							"number" : 3,
							"data" : [ 5, "obj-24", "flonum", "float", 400.0, 5, "obj-21", "flonum", "float", 130.809998000000007, 5, "obj-20", "flonum", "float", 0.707, 4, "obj-14", "function", "clear", 6, "obj-14", "function", "add", 0.0, 1.5, 6, "obj-14", "function", "add", 399.999969000000021, 0.0, 4, "obj-13", "function", "clear", 6, "obj-13", "function", "add", 0.0, 0.6875, 6, "obj-13", "function", "add", 40.366970000000002, 0.84375, 6, "obj-13", "function", "add", 99.082565000000002, 0.765625, 6, "obj-13", "function", "add", 161.467880000000008, 0.09375, 6, "obj-13", "function", "add", 399.999969000000021, 0.0 ]
						}
, 						{
							"number" : 4,
							"data" : [ 5, "obj-24", "flonum", "float", 400.0, 5, "obj-21", "flonum", "float", 392.0, 5, "obj-20", "flonum", "float", 1.0, 4, "obj-14", "function", "clear", 6, "obj-14", "function", "add", 0.0, 0.0, 6, "obj-14", "function", "add", 51.376143999999996, 5.25, 6, "obj-14", "function", "add", 80.733940000000004, 4.5, 6, "obj-14", "function", "add", 297.247681, 0.375, 6, "obj-14", "function", "add", 399.999969000000021, 0.0, 4, "obj-13", "function", "clear", 6, "obj-13", "function", "add", 0.0, 0.0, 6, "obj-13", "function", "add", 51.376143999999996, 1.0, 6, "obj-13", "function", "add", 91.743117999999996, 0.734375, 6, "obj-13", "function", "add", 326.605499000000009, 0.6875, 6, "obj-13", "function", "add", 399.999969000000021, 0.0 ]
						}
, 						{
							"number" : 5,
							"data" : [ 5, "obj-24", "flonum", "float", 200.0, 5, "obj-21", "flonum", "float", 1046.59997599999997, 5, "obj-20", "flonum", "float", 1.0, 4, "obj-14", "function", "clear", 6, "obj-14", "function", "add", 0.0, 0.0, 6, "obj-14", "function", "add", 25.688071999999998, 5.25, 6, "obj-14", "function", "add", 40.366970000000002, 4.5, 6, "obj-14", "function", "add", 148.623840000000001, 0.375, 6, "obj-14", "function", "add", 199.999985000000009, 0.0, 4, "obj-13", "function", "clear", 6, "obj-13", "function", "add", 0.0, 0.0, 6, "obj-13", "function", "add", 25.688071999999998, 1.0, 6, "obj-13", "function", "add", 45.871558999999998, 0.734375, 6, "obj-13", "function", "add", 163.302750000000003, 0.6875, 6, "obj-13", "function", "add", 199.999985000000009, 0.0 ]
						}
, 						{
							"number" : 6,
							"data" : [ 5, "obj-24", "flonum", "float", 200.0, 5, "obj-21", "flonum", "float", 1046.59997599999997, 5, "obj-20", "flonum", "float", 1.0, 4, "obj-14", "function", "clear", 6, "obj-14", "function", "add", 0.0, 1.875, 6, "obj-14", "function", "add", 51.376143999999996, 0.375, 6, "obj-14", "function", "add", 199.999985000000009, 0.0, 4, "obj-13", "function", "clear", 6, "obj-13", "function", "add", 0.0, 1.0, 6, "obj-13", "function", "add", 49.541283, 0.125, 6, "obj-13", "function", "add", 135.779816000000011, 0.015625, 6, "obj-13", "function", "add", 199.999985000000009, 0.0 ]
						}
, 						{
							"number" : 7,
							"data" : [ 5, "obj-24", "flonum", "float", 2000.0, 5, "obj-21", "flonum", "float", 392.0, 5, "obj-20", "flonum", "float", 4.0, 4, "obj-14", "function", "clear", 6, "obj-14", "function", "add", 18.348623, 0.0, 6, "obj-14", "function", "add", 477.064209000000005, 0.75, 6, "obj-14", "function", "add", 1633.027466000000004, 0.75, 6, "obj-14", "function", "add", 1999.999878000000081, 0.0, 4, "obj-13", "function", "clear", 6, "obj-13", "function", "add", 18.348623, 0.0, 6, "obj-13", "function", "add", 495.412810999999977, 1.0, 6, "obj-13", "function", "add", 1284.40356399999996, 0.78125, 6, "obj-13", "function", "add", 1688.073364000000083, 0.21875, 6, "obj-13", "function", "add", 1999.999878000000081, 0.0 ]
						}
, 						{
							"number" : 8,
							"data" : [ 5, "obj-24", "flonum", "float", 2000.0, 5, "obj-21", "flonum", "float", 61.400002000000001, 5, "obj-20", "flonum", "float", 2.5, 4, "obj-14", "function", "clear", 6, "obj-14", "function", "add", 0.0, 8.25, 6, "obj-14", "function", "add", 660.550415000000044, 23.25, 6, "obj-14", "function", "add", 1045.87146000000007, 7.875, 6, "obj-14", "function", "add", 1357.798095999999987, 10.875, 6, "obj-14", "function", "add", 1541.284302000000025, 1.875, 6, "obj-14", "function", "add", 1743.1191409999999, 3.0, 6, "obj-14", "function", "add", 1999.999755999999934, 0.0, 4, "obj-13", "function", "clear", 6, "obj-13", "function", "add", 0.0, 0.0, 6, "obj-13", "function", "add", 36.697246999999997, 1.0, 6, "obj-13", "function", "add", 348.623839999999973, 0.703125, 6, "obj-13", "function", "add", 1357.798095999999987, 0.671875, 6, "obj-13", "function", "add", 1761.467773000000079, 0.078125, 6, "obj-13", "function", "add", 1999.999755999999934, 0.0 ]
						}
 ]
				}

			}
, 			{
				"box" : 				{
					"id" : "obj-14",
					"maxclass" : "comment",
					"numinlets" : 1,
					"numoutlets" : 0,
					"patching_rect" : [ 654.535828000000038, 559.702972000000045, 100.0, 20.0 ],
					"text" : "FM tone settings"
				}

			}
, 			{
				"box" : 				{
					"id" : "obj-17",
					"maxclass" : "button",
					"numinlets" : 1,
					"numoutlets" : 1,
					"outlettype" : [ "bang" ],
					"parameter_enable" : 0,
					"patching_rect" : [ 314.399318999999991, 221.668316000000004, 24.0, 24.0 ],
					"style" : "buttonGold"
				}

			}
, 			{
				"box" : 				{
					"id" : "obj-19",
					"maxclass" : "comment",
					"numinlets" : 1,
					"numoutlets" : 0,
					"patching_rect" : [ 293.0, 194.0, 72.0, 20.0 ],
					"text" : "Play a note"
				}

			}
, 			{
				"box" : 				{
					"id" : "obj-20",
					"maxclass" : "comment",
					"numinlets" : 1,
					"numoutlets" : 0,
					"patching_rect" : [ 814.467589999999973, 414.143570000000011, 65.0, 20.0 ],
					"text" : "Amplitude"
				}

			}
, 			{
				"box" : 				{
					"id" : "obj-22",
					"maxclass" : "comment",
					"numinlets" : 1,
					"numoutlets" : 0,
					"patching_rect" : [ 610.610930999999937, 414.143570000000011, 103.0, 20.0 ],
					"text" : "Modulation Index"
				}

			}
, 			{
				"box" : 				{
					"id" : "obj-32",
					"maxclass" : "comment",
					"numinlets" : 1,
					"numoutlets" : 0,
					"patching_rect" : [ 493.477813999999967, 194.0, 57.0, 20.0 ],
					"text" : "Duration"
				}

			}
, 			{
				"box" : 				{
					"bgcolor" : [ 0.454902, 0.462745, 0.482353, 1.0 ],
					"bgcolor2" : [ 0.290196, 0.309804, 0.301961, 1.0 ],
					"bgfillcolor_angle" : 270.0,
					"bgfillcolor_autogradient" : 0.0,
					"bgfillcolor_color" : [ 0.290196, 0.309804, 0.301961, 1.0 ],
					"bgfillcolor_color1" : [ 0.454902, 0.462745, 0.482353, 1.0 ],
					"bgfillcolor_color2" : [ 0.290196, 0.309804, 0.301961, 1.0 ],
					"bgfillcolor_proportion" : 0.39,
					"bgfillcolor_type" : "gradient",
					"gradient" : 1,
					"id" : "obj-34",
					"maxclass" : "message",
					"numinlets" : 2,
					"numoutlets" : 1,
					"outlettype" : [ "" ],
					"patching_rect" : [ 493.477813999999967, 251.742576999999983, 84.0, 22.0 ],
					"text" : "setdomain $1"
				}

			}
, 			{
				"box" : 				{
					"addpoints" : [ 9.174311453917419, 0.0, 0, 247.706404255770337, 1.0, 0, 642.201778774220202, 0.78125, 0, 844.036677760401972, 0.21875, 0, 999.999933976999387, 0.0, 0 ],
					"id" : "obj-35",
					"maxclass" : "function",
					"numinlets" : 1,
					"numoutlets" : 4,
					"outlettype" : [ "float", "", "", "bang" ],
					"parameter_enable" : 0,
					"patching_rect" : [ 725.491454999999974, 293.846535000000017, 202.0, 87.0 ]
				}

			}
, 			{
				"box" : 				{
					"addpoints" : [ 9.174311453917419, 0.0, 0, 238.532103301852942, 0.75, 0, 816.513728898650811, 0.75, 0, 999.999933976999387, 0.0, 0 ],
					"id" : "obj-38",
					"maxclass" : "function",
					"numinlets" : 1,
					"numoutlets" : 4,
					"outlettype" : [ "float", "", "", "bang" ],
					"parameter_enable" : 0,
					"patching_rect" : [ 493.477813999999967, 293.846535000000017, 202.0, 87.0 ],
					"range" : [ 0.0, 24.0 ]
				}

			}
, 			{
				"box" : 				{
					"id" : "obj-39",
					"maxclass" : "comment",
					"numinlets" : 1,
					"numoutlets" : 0,
					"patching_rect" : [ 399.996581999999989, 344.371292000000039, 75.0, 20.0 ],
					"text" : "Harmonicity"
				}

			}
, 			{
				"box" : 				{
					"id" : "obj-40",
					"local" : 1,
					"maxclass" : "ezdac~",
					"numinlets" : 2,
					"numoutlets" : 0,
					"patching_rect" : [ 300.883960999999999, 627.069304999999986, 44.0, 44.0 ],
					"prototypename" : "helpfile"
				}

			}
, 			{
				"box" : 				{
					"id" : "obj-42",
					"maxclass" : "newobj",
					"numinlets" : 2,
					"numoutlets" : 2,
					"outlettype" : [ "signal", "bang" ],
					"patching_rect" : [ 554.47781400000008, 414.143570000000011, 37.0, 22.0 ],
					"text" : "line~"
				}

			}
, 			{
				"box" : 				{
					"id" : "obj-45",
					"maxclass" : "newobj",
					"numinlets" : 2,
					"numoutlets" : 2,
					"outlettype" : [ "signal", "bang" ],
					"patching_rect" : [ 786.491454999999974, 452.638611000000026, 37.0, 22.0 ],
					"text" : "line~"
				}

			}
, 			{
				"box" : 				{
					"id" : "obj-47",
					"maxclass" : "newobj",
					"numinlets" : 2,
					"numoutlets" : 1,
					"outlettype" : [ "signal" ],
					"patching_rect" : [ 299.757678999999996, 491.133667000000003, 29.5, 22.0 ],
					"text" : "*~"
				}

			}
, 			{
				"box" : 				{
					"format" : 6,
					"id" : "obj-48",
					"maxclass" : "flonum",
					"minimum" : 0.0,
					"numinlets" : 1,
					"numoutlets" : 2,
					"outlettype" : [ "", "bang" ],
					"parameter_enable" : 0,
					"patching_rect" : [ 397.744033999999999, 373.242569000000003, 62.0, 22.0 ],
					"style" : "numberGold",
					"tricolor" : [ 0.764706, 0.592157, 0.101961, 1.0 ],
					"triscale" : 0.9
				}

			}
, 			{
				"box" : 				{
					"format" : 6,
					"id" : "obj-49",
					"maxclass" : "flonum",
					"minimum" : 0.0,
					"numinlets" : 1,
					"numoutlets" : 2,
					"outlettype" : [ "", "bang" ],
					"parameter_enable" : 0,
					"patching_rect" : [ 299.757678999999996, 373.242569000000003, 62.0, 22.0 ],
					"style" : "numberGold",
					"tricolor" : [ 0.764706, 0.592157, 0.101961, 1.0 ],
					"triscale" : 0.9
				}

			}
, 			{
				"box" : 				{
					"id" : "obj-50",
					"maxclass" : "newobj",
					"numinlets" : 3,
					"numoutlets" : 1,
					"outlettype" : [ "signal" ],
					"patching_rect" : [ 299.757678999999996, 452.638611000000026, 193.0, 22.0 ],
					"style" : "newobjYellow",
					"text" : "simpleFM~"
				}

			}
, 			{
				"box" : 				{
					"id" : "obj-51",
					"maxclass" : "comment",
					"numinlets" : 1,
					"numoutlets" : 0,
					"patching_rect" : [ 302.010239000000013, 344.371292000000039, 80.0, 20.0 ],
					"text" : "Carrier Freq."
				}

			}
, 			{
				"box" : 				{
					"format" : 6,
					"id" : "obj-52",
					"maxclass" : "flonum",
					"minimum" : 0.0,
					"numinlets" : 1,
					"numoutlets" : 2,
					"outlettype" : [ "", "bang" ],
					"parameter_enable" : 0,
					"patching_rect" : [ 493.477813999999967, 221.668316000000004, 62.0, 22.0 ],
					"style" : "numberGold",
					"triscale" : 0.9
				}

			}
, 			{
				"box" : 				{
					"id" : "obj-43",
					"maxclass" : "comment",
					"numinlets" : 1,
					"numoutlets" : 0,
					"patching_rect" : [ 397.0, 24.0, 150.0, 20.0 ],
					"text" : "speed of metro bangs"
				}

			}
, 			{
				"box" : 				{
					"id" : "obj-41",
					"maxclass" : "comment",
					"numinlets" : 1,
					"numoutlets" : 0,
					"patching_rect" : [ 340.5, 97.0, 150.0, 20.0 ],
					"text" : "generate rising indices"
				}

			}
, 			{
				"box" : 				{
					"id" : "obj-37",
					"linecount" : 3,
					"maxclass" : "comment",
					"numinlets" : 1,
					"numoutlets" : 0,
					"patching_rect" : [ 133.0, 17.5, 122.0, 47.0 ],
					"text" : "manually move through data\nwith this index"
				}

			}
, 			{
				"box" : 				{
					"id" : "obj-36",
					"maxclass" : "message",
					"numinlets" : 2,
					"numoutlets" : 1,
					"outlettype" : [ "" ],
					"patching_rect" : [ 790.0, 10.0, 29.5, 22.0 ],
					"text" : "20"
				}

			}
, 			{
				"box" : 				{
					"id" : "obj-33",
					"maxclass" : "comment",
					"numinlets" : 1,
					"numoutlets" : 0,
					"patching_rect" : [ 10.5, 14.0, 122.0, 20.0 ],
					"text" : "read data file into coll"
				}

			}
, 			{
				"box" : 				{
					"id" : "obj-27",
					"maxclass" : "message",
					"numinlets" : 2,
					"numoutlets" : 1,
					"outlettype" : [ "" ],
					"patching_rect" : [ 715.0, 10.0, 29.5, 22.0 ],
					"text" : "250"
				}

			}
, 			{
				"box" : 				{
					"id" : "obj-28",
					"maxclass" : "message",
					"numinlets" : 2,
					"numoutlets" : 1,
					"outlettype" : [ "" ],
					"patching_rect" : [ 753.0, 10.0, 29.5, 22.0 ],
					"text" : "100"
				}

			}
, 			{
				"box" : 				{
					"id" : "obj-29",
					"maxclass" : "toggle",
					"numinlets" : 1,
					"numoutlets" : 1,
					"outlettype" : [ "int" ],
					"parameter_enable" : 0,
					"patching_rect" : [ 647.0, 15.0, 24.0, 24.0 ]
				}

			}
, 			{
				"box" : 				{
					"id" : "obj-30",
					"maxclass" : "newobj",
					"numinlets" : 2,
					"numoutlets" : 1,
					"outlettype" : [ "bang" ],
					"patching_rect" : [ 647.0, 52.0, 69.0, 22.0 ],
					"text" : "metro 1000"
				}

			}
, 			{
				"box" : 				{
					"id" : "obj-24",
					"maxclass" : "number",
					"numinlets" : 1,
					"numoutlets" : 2,
					"outlettype" : [ "", "bang" ],
					"parameter_enable" : 0,
					"patching_rect" : [ 256.0, 144.0, 50.0, 22.0 ]
				}

			}
, 			{
				"box" : 				{
					"id" : "obj-23",
					"maxclass" : "message",
					"numinlets" : 2,
					"numoutlets" : 1,
					"outlettype" : [ "" ],
					"patching_rect" : [ 324.0, 24.0, 29.5, 22.0 ],
					"text" : "250"
				}

			}
, 			{
				"box" : 				{
					"id" : "obj-21",
					"maxclass" : "message",
					"numinlets" : 2,
					"numoutlets" : 1,
					"outlettype" : [ "" ],
					"patching_rect" : [ 362.0, 24.0, 29.5, 22.0 ],
					"text" : "100"
				}

			}
, 			{
				"box" : 				{
					"id" : "obj-18",
					"maxclass" : "toggle",
					"numinlets" : 1,
					"numoutlets" : 1,
					"outlettype" : [ "int" ],
					"parameter_enable" : 0,
					"patching_rect" : [ 256.0, 29.0, 24.0, 24.0 ]
				}

			}
, 			{
				"box" : 				{
					"id" : "obj-16",
					"maxclass" : "newobj",
					"numinlets" : 5,
					"numoutlets" : 4,
					"outlettype" : [ "int", "", "", "int" ],
					"patching_rect" : [ 256.0, 97.0, 82.0, 22.0 ],
					"text" : "counter 1 744"
				}

			}
, 			{
				"box" : 				{
					"id" : "obj-15",
					"maxclass" : "newobj",
					"numinlets" : 2,
					"numoutlets" : 1,
					"outlettype" : [ "bang" ],
					"patching_rect" : [ 256.0, 66.0, 63.0, 22.0 ],
					"text" : "metro 250"
				}

			}
, 			{
				"box" : 				{
					"id" : "obj-9",
					"maxclass" : "number",
					"maximum" : 744,
					"minimum" : 1,
					"numinlets" : 1,
					"numoutlets" : 2,
					"outlettype" : [ "", "bang" ],
					"parameter_enable" : 0,
					"patching_rect" : [ 133.0, 66.0, 50.0, 22.0 ]
				}

			}
, 			{
				"box" : 				{
					"id" : "obj-8",
					"maxclass" : "newobj",
					"numinlets" : 1,
					"numoutlets" : 0,
					"patching_rect" : [ 37.0, 170.0, 32.0, 22.0 ],
					"text" : "print"
				}

			}
, 			{
				"box" : 				{
					"id" : "obj-6",
					"maxclass" : "message",
					"numinlets" : 2,
					"numoutlets" : 1,
					"outlettype" : [ "" ],
					"patching_rect" : [ 13.0, 34.0, 109.0, 22.0 ],
					"text" : "read tempdata1.txt"
				}

			}
, 			{
				"box" : 				{
					"id" : "obj-3",
					"maxclass" : "newobj",
					"numinlets" : 1,
					"numoutlets" : 4,
					"outlettype" : [ "", "", "", "" ],
					"patching_rect" : [ 13.0, 103.0, 91.0, 22.0 ],
					"saved_object_attributes" : 					{
						"embed" : 0,
						"precision" : 6
					}
,
					"text" : "coll climatedata"
				}

			}
 ],
		"lines" : [ 			{
				"patchline" : 				{
					"destination" : [ "obj-16", 0 ],
					"source" : [ "obj-15", 0 ]
				}

			}
, 			{
				"patchline" : 				{
					"destination" : [ "obj-24", 0 ],
					"order" : 1,
					"source" : [ "obj-16", 0 ]
				}

			}
, 			{
				"patchline" : 				{
					"destination" : [ "obj-3", 0 ],
					"order" : 2,
					"source" : [ "obj-16", 0 ]
				}

			}
, 			{
				"patchline" : 				{
					"destination" : [ "obj-57", 0 ],
					"order" : 0,
					"source" : [ "obj-16", 0 ]
				}

			}
, 			{
				"patchline" : 				{
					"destination" : [ "obj-35", 0 ],
					"midpoints" : [ 323.899318999999991, 279.410888999999997, 734.991454999999974, 279.410888999999997 ],
					"order" : 0,
					"source" : [ "obj-17", 0 ]
				}

			}
, 			{
				"patchline" : 				{
					"destination" : [ "obj-38", 0 ],
					"midpoints" : [ 323.899318999999991, 279.410888999999997, 502.977813999999967, 279.410888999999997 ],
					"order" : 1,
					"source" : [ "obj-17", 0 ]
				}

			}
, 			{
				"patchline" : 				{
					"destination" : [ "obj-15", 0 ],
					"source" : [ "obj-18", 0 ]
				}

			}
, 			{
				"patchline" : 				{
					"destination" : [ "obj-40", 1 ],
					"order" : 0,
					"source" : [ "obj-2", 0 ]
				}

			}
, 			{
				"patchline" : 				{
					"destination" : [ "obj-40", 0 ],
					"order" : 1,
					"source" : [ "obj-2", 0 ]
				}

			}
, 			{
				"patchline" : 				{
					"destination" : [ "obj-15", 1 ],
					"source" : [ "obj-21", 0 ]
				}

			}
, 			{
				"patchline" : 				{
					"destination" : [ "obj-15", 1 ],
					"source" : [ "obj-23", 0 ]
				}

			}
, 			{
				"patchline" : 				{
					"destination" : [ "obj-30", 1 ],
					"source" : [ "obj-27", 0 ]
				}

			}
, 			{
				"patchline" : 				{
					"destination" : [ "obj-30", 1 ],
					"source" : [ "obj-28", 0 ]
				}

			}
, 			{
				"patchline" : 				{
					"destination" : [ "obj-30", 0 ],
					"source" : [ "obj-29", 0 ]
				}

			}
, 			{
				"patchline" : 				{
					"destination" : [ "obj-49", 0 ],
					"source" : [ "obj-3", 0 ]
				}

			}
, 			{
				"patchline" : 				{
					"destination" : [ "obj-17", 0 ],
					"source" : [ "obj-30", 0 ]
				}

			}
, 			{
				"patchline" : 				{
					"destination" : [ "obj-35", 0 ],
					"midpoints" : [ 502.977813999999967, 279.410888999999997, 734.991454999999974, 279.410888999999997 ],
					"order" : 0,
					"source" : [ "obj-34", 0 ]
				}

			}
, 			{
				"patchline" : 				{
					"destination" : [ "obj-38", 0 ],
					"order" : 1,
					"source" : [ "obj-34", 0 ]
				}

			}
, 			{
				"patchline" : 				{
					"destination" : [ "obj-45", 0 ],
					"source" : [ "obj-35", 1 ]
				}

			}
, 			{
				"patchline" : 				{
					"destination" : [ "obj-30", 1 ],
					"source" : [ "obj-36", 0 ]
				}

			}
, 			{
				"patchline" : 				{
					"destination" : [ "obj-42", 0 ],
					"source" : [ "obj-38", 1 ]
				}

			}
, 			{
				"patchline" : 				{
					"destination" : [ "obj-50", 1 ],
					"source" : [ "obj-4", 0 ]
				}

			}
, 			{
				"patchline" : 				{
					"destination" : [ "obj-50", 2 ],
					"midpoints" : [ 563.97781400000008, 444.819304999999986, 483.257678999999996, 444.819304999999986 ],
					"source" : [ "obj-42", 0 ]
				}

			}
, 			{
				"patchline" : 				{
					"destination" : [ "obj-47", 1 ],
					"midpoints" : [ 795.991454999999974, 484.386138999999957, 319.757678999999996, 484.386138999999957 ],
					"source" : [ "obj-45", 0 ]
				}

			}
, 			{
				"patchline" : 				{
					"destination" : [ "obj-2", 0 ],
					"source" : [ "obj-47", 0 ]
				}

			}
, 			{
				"patchline" : 				{
					"destination" : [ "obj-4", 0 ],
					"source" : [ "obj-48", 0 ]
				}

			}
, 			{
				"patchline" : 				{
					"destination" : [ "obj-5", 0 ],
					"source" : [ "obj-49", 0 ]
				}

			}
, 			{
				"patchline" : 				{
					"destination" : [ "obj-50", 0 ],
					"source" : [ "obj-5", 0 ]
				}

			}
, 			{
				"patchline" : 				{
					"destination" : [ "obj-47", 0 ],
					"source" : [ "obj-50", 0 ]
				}

			}
, 			{
				"patchline" : 				{
					"destination" : [ "obj-34", 0 ],
					"source" : [ "obj-52", 0 ]
				}

			}
, 			{
				"patchline" : 				{
					"destination" : [ "obj-56", 0 ],
					"source" : [ "obj-55", 0 ]
				}

			}
, 			{
				"patchline" : 				{
					"destination" : [ "obj-58", 0 ],
					"source" : [ "obj-56", 0 ]
				}

			}
, 			{
				"patchline" : 				{
					"destination" : [ "obj-56", 0 ],
					"source" : [ "obj-57", 0 ]
				}

			}
, 			{
				"patchline" : 				{
					"destination" : [ "obj-48", 0 ],
					"source" : [ "obj-58", 0 ]
				}

			}
, 			{
				"patchline" : 				{
					"destination" : [ "obj-3", 0 ],
					"source" : [ "obj-6", 0 ]
				}

			}
, 			{
				"patchline" : 				{
					"destination" : [ "obj-3", 0 ],
					"source" : [ "obj-9", 0 ]
				}

			}
 ],
		"dependency_cache" : [ 			{
				"name" : "pressuredata1.txt",
				"bootpath" : "~/Desktop/Courses/Timbre23/Sonification/Max-ClimateExample",
				"patcherrelativepath" : ".",
				"type" : "TEXT",
				"implicit" : 1
			}
, 			{
				"name" : "simpleFM~.maxpat",
				"bootpath" : "C74:/docs/tutorial-patchers/msp-tut",
				"type" : "JSON",
				"implicit" : 1
			}
, 			{
				"name" : "tempdata1.txt",
				"bootpath" : "~/Desktop/Courses/Timbre23/Sonification/Max-ClimateExample",
				"patcherrelativepath" : ".",
				"type" : "TEXT",
				"implicit" : 1
			}
 ],
		"autosave" : 0
	}

}
